<?xml version="1.0" encoding="UTF-8"?>
<svg xmlns="http://www.w3.org/2000/svg" xmlns:xlink="http://www.w3.org/1999/xlink" width="3.258pt" height="3.258pt" viewBox="0 0 3.258 3.258" version="1.2">
<defs>
<clipPath id="clip1">
  <path d="M 0 0 L 2.886719 0 L 2.886719 2.886719 L 0 2.886719 Z M 0 0 "/>
</clipPath>
</defs>
<g id="surface1">
<g clip-path="url(#clip1)" clip-rule="nonzero">
<path style="fill-rule:nonzero;fill:rgb(0%,0%,0%);fill-opacity:1;stroke-width:0.3985;stroke-linecap:butt;stroke-linejoin:miter;stroke:rgb(0%,0%,0%);stroke-opacity:1;stroke-miterlimit:10;" d="M 1.417687 -0.001625 C 1.417687 0.783531 0.780969 1.416344 -0.00028125 1.416344 C -0.781531 1.416344 -1.41825 0.783531 -1.41825 -0.001625 C -1.41825 -0.782875 -0.781531 -1.415687 -0.00028125 -1.415687 C 0.780969 -1.415687 1.417687 -0.782875 1.417687 -0.001625 Z M 1.417687 -0.001625 " transform="matrix(1,0,0,-1,1.262,1.264)"/>
<path style="fill-rule:nonzero;fill:rgb(0%,0%,0%);fill-opacity:1;stroke-width:0.3985;stroke-linecap:butt;stroke-linejoin:miter;stroke:rgb(0%,0%,0%);stroke-opacity:1;stroke-miterlimit:10;" d="M 1.417687 -0.001625 C 1.417687 0.783531 0.780969 1.416344 -0.00028125 1.416344 C -0.781531 1.416344 -1.41825 0.783531 -1.41825 -0.001625 C -1.41825 -0.782875 -0.781531 -1.415687 -0.00028125 -1.415687 C 0.780969 -1.415687 1.417687 -0.782875 1.417687 -0.001625 Z M 1.417687 -0.001625 " transform="matrix(1,0,0,-1,1.262,1.264)"/>
</g>
</g>
</svg>
