<?xml version="1.0" encoding="UTF-8"?>
<svg xmlns="http://www.w3.org/2000/svg" xmlns:xlink="http://www.w3.org/1999/xlink" width="62.785pt" height="13.176pt" viewBox="0 0 62.785 13.176" version="1.2">
<defs>
<clipPath id="clip1">
  <path d="M 10 9 L 13 9 L 13 12.765625 L 10 12.765625 Z M 10 9 "/>
</clipPath>
<clipPath id="clip2">
  <path d="M 4 4 L 19 4 L 19 12.765625 L 4 12.765625 Z M 4 4 "/>
</clipPath>
<clipPath id="clip3">
  <path d="M 19 9 L 23 9 L 23 12.765625 L 19 12.765625 Z M 19 9 "/>
</clipPath>
<clipPath id="clip4">
  <path d="M 14 4 L 29 4 L 29 12.765625 L 14 12.765625 Z M 14 4 "/>
</clipPath>
<clipPath id="clip5">
  <path d="M 29 9 L 33 9 L 33 12.765625 L 29 12.765625 Z M 29 9 "/>
</clipPath>
<clipPath id="clip6">
  <path d="M 24 4 L 39 4 L 39 12.765625 L 24 12.765625 Z M 24 4 "/>
</clipPath>
<clipPath id="clip7">
  <path d="M 39 9 L 43 9 L 43 12.765625 L 39 12.765625 Z M 39 9 "/>
</clipPath>
<clipPath id="clip8">
  <path d="M 34 4 L 49 4 L 49 12.765625 L 34 12.765625 Z M 34 4 "/>
</clipPath>
<clipPath id="clip9">
  <path d="M 49 9 L 53 9 L 53 12.765625 L 49 12.765625 Z M 49 9 "/>
</clipPath>
<clipPath id="clip10">
  <path d="M 44 4 L 59 4 L 59 12.765625 L 44 12.765625 Z M 44 4 "/>
</clipPath>
<clipPath id="clip11">
  <path d="M 59 9 L 62.675781 9 L 62.675781 12.765625 L 59 12.765625 Z M 59 9 "/>
</clipPath>
<clipPath id="clip12">
  <path d="M 54 4 L 62.675781 4 L 62.675781 12.765625 L 54 12.765625 Z M 54 4 "/>
</clipPath>
<clipPath id="clip13">
  <path d="M 0 9 L 3 9 L 3 12.765625 L 0 12.765625 Z M 0 9 "/>
</clipPath>
<clipPath id="clip14">
  <path d="M 0 4 L 9 4 L 9 12.765625 L 0 12.765625 Z M 0 4 "/>
</clipPath>
</defs>
<g id="surface1">
<path style="fill:none;stroke-width:0.3985;stroke-linecap:butt;stroke-linejoin:miter;stroke:rgb(0%,0%,0%);stroke-opacity:1;stroke-miterlimit:10;" d="M 19.842562 0.0001875 L 29.764437 0.0001875 " transform="matrix(1,0,0,-1,11.4465,11.133)"/>
<path style="fill:none;stroke-width:0.3985;stroke-linecap:butt;stroke-linejoin:miter;stroke:rgb(0%,0%,0%);stroke-opacity:1;stroke-miterlimit:10;" d="M 29.764437 0.0001875 L 39.686312 0.0001875 " transform="matrix(1,0,0,-1,11.4465,11.133)"/>
<path style="fill:none;stroke-width:0.3985;stroke-linecap:butt;stroke-linejoin:miter;stroke:rgb(0%,0%,0%);stroke-opacity:1;stroke-miterlimit:10;" d="M 39.686312 0.0001875 L 49.608187 0.0001875 " transform="matrix(1,0,0,-1,11.4465,11.133)"/>
<path style="fill:none;stroke-width:0.3985;stroke-linecap:butt;stroke-linejoin:miter;stroke:rgb(0%,0%,0%);stroke-opacity:1;stroke-miterlimit:10;" d="M -0.0011875 0.0001875 L 9.920687 0.0001875 " transform="matrix(1,0,0,-1,11.4465,11.133)"/>
<path style="fill:none;stroke-width:0.3985;stroke-linecap:butt;stroke-linejoin:miter;stroke:rgb(0%,0%,0%);stroke-opacity:1;stroke-miterlimit:10;" d="M 9.920687 0.0001875 L 19.842562 0.0001875 " transform="matrix(1,0,0,-1,11.4465,11.133)"/>
<path style="fill:none;stroke-width:0.3985;stroke-linecap:butt;stroke-linejoin:miter;stroke:rgb(0%,0%,0%);stroke-opacity:1;stroke-miterlimit:10;" d="M 19.842562 0.0001875 L 19.842562 9.922063 " transform="matrix(1,0,0,-1,11.4465,11.133)"/>
<path style="fill:none;stroke-width:0.3985;stroke-linecap:butt;stroke-linejoin:miter;stroke:rgb(0%,0%,0%);stroke-opacity:1;stroke-miterlimit:10;" d="M -9.923063 0.0001875 L -0.0011875 0.0001875 " transform="matrix(1,0,0,-1,11.4465,11.133)"/>
<g clip-path="url(#clip1)" clip-rule="nonzero">
<path style=" stroke:none;fill-rule:nonzero;fill:rgb(0%,0%,0%);fill-opacity:1;" d="M 12.863281 11.132812 C 12.863281 10.351562 12.230469 9.714844 11.445312 9.714844 C 10.664062 9.714844 10.027344 10.351562 10.027344 11.132812 C 10.027344 11.914062 10.664062 12.550781 11.445312 12.550781 C 12.230469 12.550781 12.863281 11.914062 12.863281 11.132812 Z M 12.863281 11.132812 "/>
</g>
<g clip-path="url(#clip2)" clip-rule="nonzero">
<path style="fill:none;stroke-width:0.3985;stroke-linecap:butt;stroke-linejoin:miter;stroke:rgb(0%,0%,0%);stroke-opacity:1;stroke-miterlimit:10;" d="M 1.416781 0.0001875 C 1.416781 0.781438 0.783969 1.418156 -0.0011875 1.418156 C -0.782438 1.418156 -1.419156 0.781438 -1.419156 0.0001875 C -1.419156 -0.781062 -0.782438 -1.417781 -0.0011875 -1.417781 C 0.783969 -1.417781 1.416781 -0.781062 1.416781 0.0001875 Z M 1.416781 0.0001875 " transform="matrix(1,0,0,-1,11.4465,11.133)"/>
</g>
<path style="fill-rule:nonzero;fill:rgb(0%,0%,0%);fill-opacity:1;stroke-width:0.3985;stroke-linecap:butt;stroke-linejoin:miter;stroke:rgb(0%,0%,0%);stroke-opacity:1;stroke-miterlimit:10;" d="M 21.260531 9.922063 C 21.260531 10.703313 20.627719 11.340031 19.842562 11.340031 C 19.061312 11.340031 18.424594 10.703313 18.424594 9.922063 C 18.424594 9.136906 19.061312 8.504094 19.842562 8.504094 C 20.627719 8.504094 21.260531 9.136906 21.260531 9.922063 Z M 21.260531 9.922063 " transform="matrix(1,0,0,-1,11.4465,11.133)"/>
<g clip-path="url(#clip3)" clip-rule="nonzero">
<path style=" stroke:none;fill-rule:nonzero;fill:rgb(0%,0%,0%);fill-opacity:1;" d="M 22.785156 11.132812 C 22.785156 10.351562 22.152344 9.714844 21.367188 9.714844 C 20.585938 9.714844 19.949219 10.351562 19.949219 11.132812 C 19.949219 11.914062 20.585938 12.550781 21.367188 12.550781 C 22.152344 12.550781 22.785156 11.914062 22.785156 11.132812 Z M 22.785156 11.132812 "/>
</g>
<g clip-path="url(#clip4)" clip-rule="nonzero">
<path style="fill:none;stroke-width:0.3985;stroke-linecap:butt;stroke-linejoin:miter;stroke:rgb(0%,0%,0%);stroke-opacity:1;stroke-miterlimit:10;" d="M 11.338656 0.0001875 C 11.338656 0.781438 10.705844 1.418156 9.920687 1.418156 C 9.139437 1.418156 8.502719 0.781438 8.502719 0.0001875 C 8.502719 -0.781062 9.139437 -1.417781 9.920687 -1.417781 C 10.705844 -1.417781 11.338656 -0.781062 11.338656 0.0001875 Z M 11.338656 0.0001875 " transform="matrix(1,0,0,-1,11.4465,11.133)"/>
</g>
<g clip-path="url(#clip5)" clip-rule="nonzero">
<path style=" stroke:none;fill-rule:nonzero;fill:rgb(0%,0%,0%);fill-opacity:1;" d="M 32.707031 11.132812 C 32.707031 10.351562 32.074219 9.714844 31.289062 9.714844 C 30.507812 9.714844 29.871094 10.351562 29.871094 11.132812 C 29.871094 11.914062 30.507812 12.550781 31.289062 12.550781 C 32.074219 12.550781 32.707031 11.914062 32.707031 11.132812 Z M 32.707031 11.132812 "/>
</g>
<g clip-path="url(#clip6)" clip-rule="nonzero">
<path style="fill:none;stroke-width:0.3985;stroke-linecap:butt;stroke-linejoin:miter;stroke:rgb(0%,0%,0%);stroke-opacity:1;stroke-miterlimit:10;" d="M 21.260531 0.0001875 C 21.260531 0.781438 20.627719 1.418156 19.842562 1.418156 C 19.061312 1.418156 18.424594 0.781438 18.424594 0.0001875 C 18.424594 -0.781062 19.061312 -1.417781 19.842562 -1.417781 C 20.627719 -1.417781 21.260531 -0.781062 21.260531 0.0001875 Z M 21.260531 0.0001875 " transform="matrix(1,0,0,-1,11.4465,11.133)"/>
</g>
<g clip-path="url(#clip7)" clip-rule="nonzero">
<path style=" stroke:none;fill-rule:nonzero;fill:rgb(0%,0%,0%);fill-opacity:1;" d="M 42.628906 11.132812 C 42.628906 10.351562 41.992188 9.714844 41.210938 9.714844 C 40.429688 9.714844 39.792969 10.351562 39.792969 11.132812 C 39.792969 11.914062 40.429688 12.550781 41.210938 12.550781 C 41.992188 12.550781 42.628906 11.914062 42.628906 11.132812 Z M 42.628906 11.132812 "/>
</g>
<g clip-path="url(#clip8)" clip-rule="nonzero">
<path style="fill:none;stroke-width:0.3985;stroke-linecap:butt;stroke-linejoin:miter;stroke:rgb(0%,0%,0%);stroke-opacity:1;stroke-miterlimit:10;" d="M 31.182406 0.0001875 C 31.182406 0.781438 30.545687 1.418156 29.764437 1.418156 C 28.983187 1.418156 28.346469 0.781438 28.346469 0.0001875 C 28.346469 -0.781062 28.983187 -1.417781 29.764437 -1.417781 C 30.545687 -1.417781 31.182406 -0.781062 31.182406 0.0001875 Z M 31.182406 0.0001875 " transform="matrix(1,0,0,-1,11.4465,11.133)"/>
</g>
<g clip-path="url(#clip9)" clip-rule="nonzero">
<path style=" stroke:none;fill-rule:nonzero;fill:rgb(0%,0%,0%);fill-opacity:1;" d="M 52.550781 11.132812 C 52.550781 10.351562 51.914062 9.714844 51.132812 9.714844 C 50.351562 9.714844 49.714844 10.351562 49.714844 11.132812 C 49.714844 11.914062 50.351562 12.550781 51.132812 12.550781 C 51.914062 12.550781 52.550781 11.914062 52.550781 11.132812 Z M 52.550781 11.132812 "/>
</g>
<g clip-path="url(#clip10)" clip-rule="nonzero">
<path style="fill:none;stroke-width:0.3985;stroke-linecap:butt;stroke-linejoin:miter;stroke:rgb(0%,0%,0%);stroke-opacity:1;stroke-miterlimit:10;" d="M 41.104281 0.0001875 C 41.104281 0.781438 40.467562 1.418156 39.686312 1.418156 C 38.905062 1.418156 38.268344 0.781438 38.268344 0.0001875 C 38.268344 -0.781062 38.905062 -1.417781 39.686312 -1.417781 C 40.467562 -1.417781 41.104281 -0.781062 41.104281 0.0001875 Z M 41.104281 0.0001875 " transform="matrix(1,0,0,-1,11.4465,11.133)"/>
</g>
<g clip-path="url(#clip11)" clip-rule="nonzero">
<path style=" stroke:none;fill-rule:nonzero;fill:rgb(0%,0%,0%);fill-opacity:1;" d="M 62.472656 11.132812 C 62.472656 10.351562 61.835938 9.714844 61.054688 9.714844 C 60.269531 9.714844 59.636719 10.351562 59.636719 11.132812 C 59.636719 11.914062 60.269531 12.550781 61.054688 12.550781 C 61.835938 12.550781 62.472656 11.914062 62.472656 11.132812 Z M 62.472656 11.132812 "/>
</g>
<g clip-path="url(#clip12)" clip-rule="nonzero">
<path style="fill:none;stroke-width:0.3985;stroke-linecap:butt;stroke-linejoin:miter;stroke:rgb(0%,0%,0%);stroke-opacity:1;stroke-miterlimit:10;" d="M 51.026156 0.0001875 C 51.026156 0.781438 50.389437 1.418156 49.608187 1.418156 C 48.823031 1.418156 48.190219 0.781438 48.190219 0.0001875 C 48.190219 -0.781062 48.823031 -1.417781 49.608187 -1.417781 C 50.389437 -1.417781 51.026156 -0.781062 51.026156 0.0001875 Z M 51.026156 0.0001875 " transform="matrix(1,0,0,-1,11.4465,11.133)"/>
</g>
<g clip-path="url(#clip13)" clip-rule="nonzero">
<path style=" stroke:none;fill-rule:nonzero;fill:rgb(100%,100%,100%);fill-opacity:1;" d="M 2.941406 11.132812 C 2.941406 10.351562 2.308594 9.714844 1.523438 9.714844 C 0.742188 9.714844 0.109375 10.351562 0.109375 11.132812 C 0.109375 11.914062 0.742188 12.550781 1.523438 12.550781 C 2.308594 12.550781 2.941406 11.914062 2.941406 11.132812 Z M 2.941406 11.132812 "/>
</g>
<g clip-path="url(#clip14)" clip-rule="nonzero">
<path style="fill:none;stroke-width:0.3985;stroke-linecap:butt;stroke-linejoin:miter;stroke:rgb(0%,0%,0%);stroke-opacity:1;stroke-miterlimit:10;" d="M -8.505094 0.0001875 C -8.505094 0.781438 -9.137906 1.418156 -9.923063 1.418156 C -10.704313 1.418156 -11.337125 0.781438 -11.337125 0.0001875 C -11.337125 -0.781062 -10.704313 -1.417781 -9.923063 -1.417781 C -9.137906 -1.417781 -8.505094 -0.781062 -8.505094 0.0001875 Z M -8.505094 0.0001875 " transform="matrix(1,0,0,-1,11.4465,11.133)"/>
</g>
</g>
</svg>
